<svg width="105" height="58" viewBox="0 0 105 58" fill="none" xmlns="http://www.w3.org/2000/svg">
<path d="M26.256 6.324V10.2C26.256 10.52 26.324 10.748 26.46 10.884C26.596 11.012 26.832 11.076 27.168 11.076H27.972V12H26.988C26.38 12 25.924 11.86 25.62 11.58C25.316 11.3 25.164 10.84 25.164 10.2V6.324H24.312V5.424H25.164V3.768H26.256V5.424H27.972V6.324H26.256ZM38.0551 5.424L36.0031 12H34.8751L33.2911 6.78L31.7071 12H30.5791L28.5151 5.424H29.6311L31.1431 10.944L32.7751 5.424H33.8911L35.4871 10.956L36.9751 5.424H38.0551ZM39.7028 4.356C39.4948 4.356 39.3188 4.284 39.1748 4.14C39.0308 3.996 38.9588 3.82 38.9588 3.612C38.9588 3.404 39.0308 3.228 39.1748 3.084C39.3188 2.94 39.4948 2.868 39.7028 2.868C39.9028 2.868 40.0708 2.94 40.2068 3.084C40.3508 3.228 40.4228 3.404 40.4228 3.612C40.4228 3.82 40.3508 3.996 40.2068 4.14C40.0708 4.284 39.9028 4.356 39.7028 4.356ZM40.2308 5.424V12H39.1388V5.424H40.2308ZM43.424 6.324V10.2C43.424 10.52 43.492 10.748 43.628 10.884C43.764 11.012 44 11.076 44.336 11.076H45.14V12H44.156C43.548 12 43.092 11.86 42.788 11.58C42.484 11.3 42.332 10.84 42.332 10.2V6.324H41.48V5.424H42.332V3.768H43.424V5.424H45.14V6.324H43.424ZM47.7951 6.324V10.2C47.7951 10.52 47.8631 10.748 47.9991 10.884C48.1351 11.012 48.3711 11.076 48.7071 11.076H49.5111V12H48.5271C47.9191 12 47.4631 11.86 47.1591 11.58C46.8551 11.3 46.7031 10.84 46.7031 10.2V6.324H45.8511V5.424H46.7031V3.768H47.7951V5.424H49.5111V6.324H47.7951ZM56.8342 8.46C56.8342 8.668 56.8222 8.888 56.7982 9.12H51.5422C51.5822 9.768 51.8022 10.276 52.2022 10.644C52.6102 11.004 53.1022 11.184 53.6782 11.184C54.1502 11.184 54.5422 11.076 54.8542 10.86C55.1742 10.636 55.3982 10.34 55.5262 9.972H56.7022C56.5262 10.604 56.1742 11.12 55.6462 11.52C55.1182 11.912 54.4622 12.108 53.6782 12.108C53.0542 12.108 52.4942 11.968 51.9982 11.688C51.5102 11.408 51.1262 11.012 50.8462 10.5C50.5662 9.98 50.4262 9.38 50.4262 8.7C50.4262 8.02 50.5622 7.424 50.8342 6.912C51.1062 6.4 51.4862 6.008 51.9742 5.736C52.4702 5.456 53.0382 5.316 53.6782 5.316C54.3022 5.316 54.8542 5.452 55.3342 5.724C55.8142 5.996 56.1822 6.372 56.4382 6.852C56.7022 7.324 56.8342 7.86 56.8342 8.46ZM55.7062 8.232C55.7062 7.816 55.6142 7.46 55.4302 7.164C55.2462 6.86 54.9942 6.632 54.6742 6.48C54.3622 6.32 54.0142 6.24 53.6302 6.24C53.0782 6.24 52.6062 6.416 52.2142 6.768C51.8302 7.12 51.6102 7.608 51.5542 8.232H55.7062ZM59.3676 6.492C59.5596 6.116 59.8316 5.824 60.1836 5.616C60.5436 5.408 60.9796 5.304 61.4916 5.304V6.432H61.2036C59.9796 6.432 59.3676 7.096 59.3676 8.424V12H58.2756V5.424H59.3676V6.492ZM63.1001 12.072C62.8921 12.072 62.7161 12 62.5721 11.856C62.4281 11.712 62.3561 11.536 62.3561 11.328C62.3561 11.12 62.4281 10.944 62.5721 10.8C62.7161 10.656 62.8921 10.584 63.1001 10.584C63.3001 10.584 63.4681 10.656 63.6041 10.8C63.7481 10.944 63.8201 11.12 63.8201 11.328C63.8201 11.536 63.7481 11.712 63.6041 11.856C63.4681 12 63.3001 12.072 63.1001 12.072ZM63.1001 6.936C62.8921 6.936 62.7161 6.864 62.5721 6.72C62.4281 6.576 62.3561 6.4 62.3561 6.192C62.3561 5.984 62.4281 5.808 62.5721 5.664C62.7161 5.52 62.8921 5.448 63.1001 5.448C63.3001 5.448 63.4681 5.52 63.6041 5.664C63.7481 5.808 63.8201 5.984 63.8201 6.192C63.8201 6.4 63.7481 6.576 63.6041 6.72C63.4681 6.864 63.3001 6.936 63.1001 6.936ZM68.098 8.688C68.098 8.016 68.234 7.428 68.506 6.924C68.778 6.412 69.15 6.016 69.622 5.736C70.102 5.456 70.634 5.316 71.218 5.316C71.794 5.316 72.294 5.44 72.718 5.688C73.142 5.936 73.458 6.248 73.666 6.624V5.424H74.77V12H73.666V10.776C73.45 11.16 73.126 11.48 72.694 11.736C72.27 11.984 71.774 12.108 71.206 12.108C70.622 12.108 70.094 11.964 69.622 11.676C69.15 11.388 68.778 10.984 68.506 10.464C68.234 9.944 68.098 9.352 68.098 8.688ZM73.666 8.7C73.666 8.204 73.566 7.772 73.366 7.404C73.166 7.036 72.894 6.756 72.55 6.564C72.214 6.364 71.842 6.264 71.434 6.264C71.026 6.264 70.654 6.36 70.318 6.552C69.982 6.744 69.714 7.024 69.514 7.392C69.314 7.76 69.214 8.192 69.214 8.688C69.214 9.192 69.314 9.632 69.514 10.008C69.714 10.376 69.982 10.66 70.318 10.86C70.654 11.052 71.026 11.148 71.434 11.148C71.842 11.148 72.214 11.052 72.55 10.86C72.894 10.66 73.166 10.376 73.366 10.008C73.566 9.632 73.666 9.196 73.666 8.7ZM78.9434 12.108C78.4394 12.108 77.9874 12.024 77.5874 11.856C77.1874 11.68 76.8714 11.44 76.6394 11.136C76.4074 10.824 76.2794 10.468 76.2554 10.068H77.3834C77.4154 10.396 77.5674 10.664 77.8394 10.872C78.1194 11.08 78.4834 11.184 78.9314 11.184C79.3474 11.184 79.6754 11.092 79.9154 10.908C80.1554 10.724 80.2754 10.492 80.2754 10.212C80.2754 9.924 80.1474 9.712 79.8914 9.576C79.6354 9.432 79.2394 9.292 78.7034 9.156C78.2154 9.028 77.8154 8.9 77.5034 8.772C77.1994 8.636 76.9354 8.44 76.7114 8.184C76.4954 7.92 76.3874 7.576 76.3874 7.152C76.3874 6.816 76.4874 6.508 76.6874 6.228C76.8874 5.948 77.1714 5.728 77.5394 5.568C77.9074 5.4 78.3274 5.316 78.7994 5.316C79.5274 5.316 80.1154 5.5 80.5634 5.868C81.0114 6.236 81.2514 6.74 81.2834 7.38H80.1914C80.1674 7.036 80.0274 6.76 79.7714 6.552C79.5234 6.344 79.1874 6.24 78.7634 6.24C78.3714 6.24 78.0594 6.324 77.8274 6.492C77.5954 6.66 77.4794 6.88 77.4794 7.152C77.4794 7.368 77.5474 7.548 77.6834 7.692C77.8274 7.828 78.0034 7.94 78.2114 8.028C78.4274 8.108 78.7234 8.2 79.0994 8.304C79.5714 8.432 79.9554 8.56 80.2514 8.688C80.5474 8.808 80.7994 8.992 81.0074 9.24C81.2234 9.488 81.3354 9.812 81.3434 10.212C81.3434 10.572 81.2434 10.896 81.0434 11.184C80.8434 11.472 80.5594 11.7 80.1914 11.868C79.8314 12.028 79.4154 12.108 78.9434 12.108ZM82.4769 8.7C82.4769 8.02 82.6129 7.428 82.8849 6.924C83.1569 6.412 83.5329 6.016 84.0129 5.736C84.5009 5.456 85.0569 5.316 85.6809 5.316C86.4889 5.316 87.1529 5.512 87.6729 5.904C88.2009 6.296 88.5489 6.84 88.7169 7.536H87.5409C87.4289 7.136 87.2089 6.82 86.8809 6.588C86.5609 6.356 86.1609 6.24 85.6809 6.24C85.0569 6.24 84.5529 6.456 84.1689 6.888C83.7849 7.312 83.5929 7.916 83.5929 8.7C83.5929 9.492 83.7849 10.104 84.1689 10.536C84.5529 10.968 85.0569 11.184 85.6809 11.184C86.1609 11.184 86.5609 11.072 86.8809 10.848C87.2009 10.624 87.4209 10.304 87.5409 9.888H88.7169C88.5409 10.56 88.1889 11.1 87.6609 11.508C87.1329 11.908 86.4729 12.108 85.6809 12.108C85.0569 12.108 84.5009 11.968 84.0129 11.688C83.5329 11.408 83.1569 11.012 82.8849 10.5C82.6129 9.988 82.4769 9.388 82.4769 8.7ZM89.766 8.688C89.766 8.016 89.902 7.428 90.174 6.924C90.446 6.412 90.818 6.016 91.29 5.736C91.77 5.456 92.302 5.316 92.886 5.316C93.462 5.316 93.962 5.44 94.386 5.688C94.81 5.936 95.126 6.248 95.334 6.624V5.424H96.438V12H95.334V10.776C95.118 11.16 94.794 11.48 94.362 11.736C93.938 11.984 93.442 12.108 92.874 12.108C92.29 12.108 91.762 11.964 91.29 11.676C90.818 11.388 90.446 10.984 90.174 10.464C89.902 9.944 89.766 9.352 89.766 8.688ZM95.334 8.7C95.334 8.204 95.234 7.772 95.034 7.404C94.834 7.036 94.562 6.756 94.218 6.564C93.882 6.364 93.51 6.264 93.102 6.264C92.694 6.264 92.322 6.36 91.986 6.552C91.65 6.744 91.382 7.024 91.182 7.392C90.982 7.76 90.882 8.192 90.882 8.688C90.882 9.192 90.982 9.632 91.182 10.008C91.382 10.376 91.65 10.66 91.986 10.86C92.322 11.052 92.694 11.148 93.102 11.148C93.51 11.148 93.882 11.052 94.218 10.86C94.562 10.66 94.834 10.376 95.034 10.008C95.234 9.632 95.334 9.196 95.334 8.7ZM97.8754 8.7C97.8754 8.02 98.0114 7.428 98.2834 6.924C98.5554 6.412 98.9314 6.016 99.4114 5.736C99.8994 5.456 100.455 5.316 101.079 5.316C101.887 5.316 102.551 5.512 103.071 5.904C103.599 6.296 103.947 6.84 104.115 7.536H102.939C102.827 7.136 102.607 6.82 102.279 6.588C101.959 6.356 101.559 6.24 101.079 6.24C100.455 6.24 99.9514 6.456 99.5674 6.888C99.1834 7.312 98.9914 7.916 98.9914 8.7C98.9914 9.492 99.1834 10.104 99.5674 10.536C99.9514 10.968 100.455 11.184 101.079 11.184C101.559 11.184 101.959 11.072 102.279 10.848C102.599 10.624 102.819 10.304 102.939 9.888H104.115C103.939 10.56 103.587 11.1 103.059 11.508C102.531 11.908 101.871 12.108 101.079 12.108C100.455 12.108 99.8994 11.968 99.4114 11.688C98.9314 11.408 98.5554 11.012 98.2834 10.5C98.0114 9.988 97.8754 9.388 97.8754 8.7Z" fill="#FAFCFF"/>
<path d="M1.488 24.356C1.28 24.356 1.104 24.284 0.96 24.14C0.816 23.996 0.744 23.82 0.744 23.612C0.744 23.404 0.816 23.228 0.96 23.084C1.104 22.94 1.28 22.868 1.488 22.868C1.688 22.868 1.856 22.94 1.992 23.084C2.136 23.228 2.208 23.404 2.208 23.612C2.208 23.82 2.136 23.996 1.992 24.14C1.856 24.284 1.688 24.356 1.488 24.356ZM2.016 25.424V32H0.924V25.424H2.016ZM7.08113 25.304C7.88113 25.304 8.52913 25.548 9.02513 26.036C9.52113 26.516 9.76913 27.212 9.76913 28.124V32H8.68913V28.28C8.68913 27.624 8.52513 27.124 8.19713 26.78C7.86913 26.428 7.42113 26.252 6.85313 26.252C6.27713 26.252 5.81713 26.432 5.47313 26.792C5.13713 27.152 4.96913 27.676 4.96913 28.364V32H3.87713V25.424H4.96913V26.36C5.18513 26.024 5.47713 25.764 5.84513 25.58C6.22113 25.396 6.63313 25.304 7.08113 25.304ZM13.8809 32.108C13.3769 32.108 12.9249 32.024 12.5249 31.856C12.1249 31.68 11.8089 31.44 11.5769 31.136C11.3449 30.824 11.2169 30.468 11.1929 30.068H12.3209C12.3529 30.396 12.5049 30.664 12.7769 30.872C13.0569 31.08 13.4209 31.184 13.8689 31.184C14.2849 31.184 14.6129 31.092 14.8529 30.908C15.0929 30.724 15.2129 30.492 15.2129 30.212C15.2129 29.924 15.0849 29.712 14.8289 29.576C14.5729 29.432 14.1769 29.292 13.6409 29.156C13.1529 29.028 12.7529 28.9 12.4409 28.772C12.1369 28.636 11.8729 28.44 11.6489 28.184C11.4329 27.92 11.3249 27.576 11.3249 27.152C11.3249 26.816 11.4249 26.508 11.6249 26.228C11.8249 25.948 12.1089 25.728 12.4769 25.568C12.8449 25.4 13.2649 25.316 13.7369 25.316C14.4649 25.316 15.0529 25.5 15.5009 25.868C15.9489 26.236 16.1889 26.74 16.2209 27.38H15.1289C15.1049 27.036 14.9649 26.76 14.7089 26.552C14.4609 26.344 14.1249 26.24 13.7009 26.24C13.3089 26.24 12.9969 26.324 12.7649 26.492C12.5329 26.66 12.4169 26.88 12.4169 27.152C12.4169 27.368 12.4849 27.548 12.6209 27.692C12.7649 27.828 12.9409 27.94 13.1489 28.028C13.3649 28.108 13.6609 28.2 14.0369 28.304C14.5089 28.432 14.8929 28.56 15.1889 28.688C15.4849 28.808 15.7369 28.992 15.9449 29.24C16.1609 29.488 16.2729 29.812 16.2809 30.212C16.2809 30.572 16.1809 30.896 15.9809 31.184C15.7809 31.472 15.4969 31.7 15.1289 31.868C14.7689 32.028 14.3529 32.108 13.8809 32.108ZM19.1544 26.324V30.2C19.1544 30.52 19.2224 30.748 19.3584 30.884C19.4944 31.012 19.7304 31.076 20.0664 31.076H20.8704V32H19.8864C19.2784 32 18.8224 31.86 18.5184 31.58C18.2144 31.3 18.0624 30.84 18.0624 30.2V26.324H17.2104V25.424H18.0624V23.768H19.1544V25.424H20.8704V26.324H19.1544ZM21.7855 28.688C21.7855 28.016 21.9215 27.428 22.1935 26.924C22.4655 26.412 22.8375 26.016 23.3095 25.736C23.7895 25.456 24.3215 25.316 24.9055 25.316C25.4815 25.316 25.9815 25.44 26.4055 25.688C26.8295 25.936 27.1455 26.248 27.3535 26.624V25.424H28.4575V32H27.3535V30.776C27.1375 31.16 26.8135 31.48 26.3815 31.736C25.9575 31.984 25.4615 32.108 24.8935 32.108C24.3095 32.108 23.7815 31.964 23.3095 31.676C22.8375 31.388 22.4655 30.984 22.1935 30.464C21.9215 29.944 21.7855 29.352 21.7855 28.688ZM27.3535 28.7C27.3535 28.204 27.2535 27.772 27.0535 27.404C26.8535 27.036 26.5815 26.756 26.2375 26.564C25.9015 26.364 25.5295 26.264 25.1215 26.264C24.7135 26.264 24.3415 26.36 24.0055 26.552C23.6695 26.744 23.4015 27.024 23.2015 27.392C23.0015 27.76 22.9015 28.192 22.9015 28.688C22.9015 29.192 23.0015 29.632 23.2015 30.008C23.4015 30.376 23.6695 30.66 24.0055 30.86C24.3415 31.052 24.7135 31.148 25.1215 31.148C25.5295 31.148 25.9015 31.052 26.2375 30.86C26.5815 30.66 26.8535 30.376 27.0535 30.008C27.2535 29.632 27.3535 29.196 27.3535 28.7ZM30.6509 32.072C30.4429 32.072 30.2669 32 30.1229 31.856C29.9789 31.712 29.9069 31.536 29.9069 31.328C29.9069 31.12 29.9789 30.944 30.1229 30.8C30.2669 30.656 30.4429 30.584 30.6509 30.584C30.8509 30.584 31.0189 30.656 31.1549 30.8C31.2989 30.944 31.3709 31.12 31.3709 31.328C31.3709 31.536 31.2989 31.712 31.1549 31.856C31.0189 32 30.8509 32.072 30.6509 32.072ZM30.6509 26.936C30.4429 26.936 30.2669 26.864 30.1229 26.72C29.9789 26.576 29.9069 26.4 29.9069 26.192C29.9069 25.984 29.9789 25.808 30.1229 25.664C30.2669 25.52 30.4429 25.448 30.6509 25.448C30.8509 25.448 31.0189 25.52 31.1549 25.664C31.2989 25.808 31.3709 25.984 31.3709 26.192C31.3709 26.4 31.2989 26.576 31.1549 26.72C31.0189 26.864 30.8509 26.936 30.6509 26.936ZM42.0568 24.308C42.9448 24.308 43.7168 24.476 44.3728 24.812C45.0288 25.148 45.5328 25.62 45.8848 26.228C46.2368 26.828 46.4128 27.524 46.4128 28.316C46.4128 28.948 46.3088 29.556 46.1008 30.14C45.8928 30.716 45.5888 31.184 45.1888 31.544C44.7968 31.904 44.3368 32.084 43.8088 32.084C43.4088 32.084 43.1008 31.984 42.8848 31.784C42.6688 31.584 42.5448 31.312 42.5128 30.968C42.2648 31.312 41.9488 31.584 41.5648 31.784C41.1888 31.984 40.7888 32.084 40.3648 32.084C39.7568 32.084 39.2768 31.9 38.9248 31.532C38.5808 31.156 38.4088 30.652 38.4088 30.02C38.4088 29.42 38.5328 28.86 38.7808 28.34C39.0368 27.82 39.3888 27.404 39.8368 27.092C40.2848 26.772 40.7928 26.612 41.3608 26.612C42.1208 26.612 42.6328 26.9 42.8968 27.476L43.0288 26.732H43.9768L43.3768 30.2C43.3528 30.352 43.3408 30.492 43.3408 30.62C43.3408 31.1 43.5528 31.34 43.9768 31.34C44.2968 31.34 44.5728 31.188 44.8048 30.884C45.0448 30.58 45.2248 30.2 45.3448 29.744C45.4648 29.28 45.5248 28.824 45.5248 28.376C45.5248 27.328 45.2088 26.516 44.5768 25.94C43.9528 25.364 43.0688 25.076 41.9248 25.076C40.9728 25.076 40.1128 25.308 39.3448 25.772C38.5848 26.228 37.9888 26.856 37.5568 27.656C37.1248 28.456 36.9088 29.34 36.9088 30.308C36.9008 31.364 37.2168 32.176 37.8568 32.744C38.4968 33.32 39.3848 33.608 40.5208 33.608C41.2728 33.608 41.9368 33.472 42.5128 33.2L42.6568 33.944C41.9448 34.24 41.1608 34.388 40.3048 34.388C39.4488 34.388 38.6928 34.224 38.0368 33.896C37.3888 33.576 36.8848 33.112 36.5248 32.504C36.1728 31.904 35.9968 31.204 35.9968 30.404C35.9968 29.276 36.2568 28.248 36.7768 27.32C37.2968 26.384 38.0168 25.648 38.9368 25.112C39.8648 24.576 40.9048 24.308 42.0568 24.308ZM40.6888 31.232C41.0488 31.232 41.3808 31.128 41.6848 30.92C41.9888 30.704 42.2288 30.416 42.4048 30.056C42.5808 29.688 42.6688 29.288 42.6688 28.856C42.6688 28.44 42.5528 28.104 42.3208 27.848C42.0968 27.584 41.7768 27.452 41.3608 27.452C40.9768 27.452 40.6368 27.568 40.3408 27.8C40.0528 28.024 39.8288 28.324 39.6688 28.7C39.5088 29.068 39.4288 29.452 39.4288 29.852C39.4288 30.276 39.5368 30.612 39.7528 30.86C39.9688 31.108 40.2808 31.232 40.6888 31.232ZM47.8012 28.688C47.8012 28.016 47.9372 27.428 48.2092 26.924C48.4812 26.412 48.8532 26.016 49.3252 25.736C49.8052 25.456 50.3372 25.316 50.9212 25.316C51.4972 25.316 51.9972 25.44 52.4212 25.688C52.8452 25.936 53.1612 26.248 53.3692 26.624V25.424H54.4732V32H53.3692V30.776C53.1532 31.16 52.8292 31.48 52.3972 31.736C51.9732 31.984 51.4772 32.108 50.9092 32.108C50.3252 32.108 49.7972 31.964 49.3252 31.676C48.8532 31.388 48.4812 30.984 48.2092 30.464C47.9372 29.944 47.8012 29.352 47.8012 28.688ZM53.3692 28.7C53.3692 28.204 53.2692 27.772 53.0692 27.404C52.8692 27.036 52.5972 26.756 52.2532 26.564C51.9172 26.364 51.5452 26.264 51.1372 26.264C50.7292 26.264 50.3572 26.36 50.0212 26.552C49.6852 26.744 49.4172 27.024 49.2172 27.392C49.0172 27.76 48.9172 28.192 48.9172 28.688C48.9172 29.192 49.0172 29.632 49.2172 30.008C49.4172 30.376 49.6852 30.66 50.0212 30.86C50.3572 31.052 50.7292 31.148 51.1372 31.148C51.5452 31.148 51.9172 31.052 52.2532 30.86C52.5972 30.66 52.8692 30.376 53.0692 30.008C53.2692 29.632 53.3692 29.196 53.3692 28.7ZM59.0305 25.316C59.5985 25.316 60.0945 25.44 60.5185 25.688C60.9505 25.936 61.2705 26.248 61.4785 26.624V25.424H62.5825V32.144C62.5825 32.744 62.4545 33.276 62.1985 33.74C61.9425 34.212 61.5745 34.58 61.0945 34.844C60.6225 35.108 60.0705 35.24 59.4385 35.24C58.5745 35.24 57.8545 35.036 57.2785 34.628C56.7025 34.22 56.3625 33.664 56.2585 32.96H57.3385C57.4585 33.36 57.7065 33.68 58.0825 33.92C58.4585 34.168 58.9105 34.292 59.4385 34.292C60.0385 34.292 60.5265 34.104 60.9025 33.728C61.2865 33.352 61.4785 32.824 61.4785 32.144V30.764C61.2625 31.148 60.9425 31.468 60.5185 31.724C60.0945 31.98 59.5985 32.108 59.0305 32.108C58.4465 32.108 57.9145 31.964 57.4345 31.676C56.9625 31.388 56.5905 30.984 56.3185 30.464C56.0465 29.944 55.9105 29.352 55.9105 28.688C55.9105 28.016 56.0465 27.428 56.3185 26.924C56.5905 26.412 56.9625 26.016 57.4345 25.736C57.9145 25.456 58.4465 25.316 59.0305 25.316ZM61.4785 28.7C61.4785 28.204 61.3785 27.772 61.1785 27.404C60.9785 27.036 60.7065 26.756 60.3625 26.564C60.0265 26.364 59.6545 26.264 59.2465 26.264C58.8385 26.264 58.4665 26.36 58.1305 26.552C57.7945 26.744 57.5265 27.024 57.3265 27.392C57.1265 27.76 57.0265 28.192 57.0265 28.688C57.0265 29.192 57.1265 29.632 57.3265 30.008C57.5265 30.376 57.7945 30.66 58.1305 30.86C58.4665 31.052 58.8385 31.148 59.2465 31.148C59.6545 31.148 60.0265 31.052 60.3625 30.86C60.7065 30.66 60.9785 30.376 61.1785 30.008C61.3785 29.632 61.4785 29.196 61.4785 28.7ZM66.7559 32.108C66.2519 32.108 65.7999 32.024 65.3999 31.856C64.9999 31.68 64.6839 31.44 64.4519 31.136C64.2199 30.824 64.0919 30.468 64.0679 30.068H65.1959C65.2279 30.396 65.3799 30.664 65.6519 30.872C65.9319 31.08 66.2959 31.184 66.7439 31.184C67.1599 31.184 67.4879 31.092 67.7279 30.908C67.9679 30.724 68.0879 30.492 68.0879 30.212C68.0879 29.924 67.9599 29.712 67.7039 29.576C67.4479 29.432 67.0519 29.292 66.5159 29.156C66.0279 29.028 65.6279 28.9 65.3159 28.772C65.0119 28.636 64.7479 28.44 64.5239 28.184C64.3079 27.92 64.1999 27.576 64.1999 27.152C64.1999 26.816 64.2999 26.508 64.4999 26.228C64.6999 25.948 64.9839 25.728 65.3519 25.568C65.7199 25.4 66.1399 25.316 66.6119 25.316C67.3399 25.316 67.9279 25.5 68.3759 25.868C68.8239 26.236 69.0639 26.74 69.0959 27.38H68.0039C67.9799 27.036 67.8399 26.76 67.5839 26.552C67.3359 26.344 66.9999 26.24 66.5759 26.24C66.1839 26.24 65.8719 26.324 65.6399 26.492C65.4079 26.66 65.2919 26.88 65.2919 27.152C65.2919 27.368 65.3599 27.548 65.4959 27.692C65.6399 27.828 65.8159 27.94 66.0239 28.028C66.2399 28.108 66.5359 28.2 66.9119 28.304C67.3839 28.432 67.7679 28.56 68.0639 28.688C68.3599 28.808 68.6119 28.992 68.8199 29.24C69.0359 29.488 69.1479 29.812 69.1559 30.212C69.1559 30.572 69.0559 30.896 68.8559 31.184C68.6559 31.472 68.3719 31.7 68.0039 31.868C67.6439 32.028 67.2279 32.108 66.7559 32.108ZM70.2894 28.688C70.2894 28.016 70.4254 27.428 70.6974 26.924C70.9694 26.412 71.3414 26.016 71.8134 25.736C72.2934 25.456 72.8254 25.316 73.4094 25.316C73.9854 25.316 74.4854 25.44 74.9094 25.688C75.3334 25.936 75.6494 26.248 75.8574 26.624V25.424H76.9614V32H75.8574V30.776C75.6414 31.16 75.3174 31.48 74.8854 31.736C74.4614 31.984 73.9654 32.108 73.3974 32.108C72.8134 32.108 72.2854 31.964 71.8134 31.676C71.3414 31.388 70.9694 30.984 70.6974 30.464C70.4254 29.944 70.2894 29.352 70.2894 28.688ZM75.8574 28.7C75.8574 28.204 75.7574 27.772 75.5574 27.404C75.3574 27.036 75.0854 26.756 74.7414 26.564C74.4054 26.364 74.0334 26.264 73.6254 26.264C73.2174 26.264 72.8454 26.36 72.5094 26.552C72.1734 26.744 71.9054 27.024 71.7054 27.392C71.5054 27.76 71.4054 28.192 71.4054 28.688C71.4054 29.192 71.5054 29.632 71.7054 30.008C71.9054 30.376 72.1734 30.66 72.5094 30.86C72.8454 31.052 73.2174 31.148 73.6254 31.148C74.0334 31.148 74.4054 31.052 74.7414 30.86C75.0854 30.66 75.3574 30.376 75.5574 30.008C75.7574 29.632 75.8574 29.196 75.8574 28.7ZM81.1348 32.108C80.6308 32.108 80.1788 32.024 79.7788 31.856C79.3788 31.68 79.0628 31.44 78.8308 31.136C78.5988 30.824 78.4708 30.468 78.4468 30.068H79.5748C79.6068 30.396 79.7588 30.664 80.0308 30.872C80.3108 31.08 80.6748 31.184 81.1228 31.184C81.5388 31.184 81.8668 31.092 82.1068 30.908C82.3468 30.724 82.4668 30.492 82.4668 30.212C82.4668 29.924 82.3388 29.712 82.0828 29.576C81.8268 29.432 81.4308 29.292 80.8948 29.156C80.4068 29.028 80.0068 28.9 79.6948 28.772C79.3908 28.636 79.1268 28.44 78.9028 28.184C78.6868 27.92 78.5788 27.576 78.5788 27.152C78.5788 26.816 78.6788 26.508 78.8788 26.228C79.0788 25.948 79.3628 25.728 79.7308 25.568C80.0988 25.4 80.5188 25.316 80.9908 25.316C81.7188 25.316 82.3068 25.5 82.7548 25.868C83.2028 26.236 83.4428 26.74 83.4748 27.38H82.3828C82.3588 27.036 82.2188 26.76 81.9628 26.552C81.7148 26.344 81.3788 26.24 80.9548 26.24C80.5628 26.24 80.2508 26.324 80.0188 26.492C79.7868 26.66 79.6708 26.88 79.6708 27.152C79.6708 27.368 79.7388 27.548 79.8748 27.692C80.0188 27.828 80.1948 27.94 80.4028 28.028C80.6188 28.108 80.9148 28.2 81.2908 28.304C81.7628 28.432 82.1468 28.56 82.4428 28.688C82.7388 28.808 82.9908 28.992 83.1988 29.24C83.4148 29.488 83.5268 29.812 83.5348 30.212C83.5348 30.572 83.4348 30.896 83.2348 31.184C83.0348 31.472 82.7508 31.7 82.3828 31.868C82.0228 32.028 81.6068 32.108 81.1348 32.108ZM86.4083 26.324V30.2C86.4083 30.52 86.4763 30.748 86.6123 30.884C86.7483 31.012 86.9843 31.076 87.3203 31.076H88.1243V32H87.1403C86.5323 32 86.0763 31.86 85.7723 31.58C85.4683 31.3 85.3163 30.84 85.3163 30.2V26.324H84.4643V25.424H85.3163V23.768H86.4083V25.424H88.1243V26.324H86.4083ZM89.0394 28.688C89.0394 28.016 89.1754 27.428 89.4474 26.924C89.7194 26.412 90.0914 26.016 90.5634 25.736C91.0434 25.456 91.5794 25.316 92.1714 25.316C92.6834 25.316 93.1594 25.436 93.5994 25.676C94.0394 25.908 94.3754 26.216 94.6074 26.6V23.12H95.7114V32H94.6074V30.764C94.3914 31.156 94.0714 31.48 93.6474 31.736C93.2234 31.984 92.7274 32.108 92.1594 32.108C91.5754 32.108 91.0434 31.964 90.5634 31.676C90.0914 31.388 89.7194 30.984 89.4474 30.464C89.1754 29.944 89.0394 29.352 89.0394 28.688ZM94.6074 28.7C94.6074 28.204 94.5074 27.772 94.3074 27.404C94.1074 27.036 93.8354 26.756 93.4914 26.564C93.1554 26.364 92.7834 26.264 92.3754 26.264C91.9674 26.264 91.5954 26.36 91.2594 26.552C90.9234 26.744 90.6554 27.024 90.4554 27.392C90.2554 27.76 90.1554 28.192 90.1554 28.688C90.1554 29.192 90.2554 29.632 90.4554 30.008C90.6554 30.376 90.9234 30.66 91.2594 30.86C91.5954 31.052 91.9674 31.148 92.3754 31.148C92.7834 31.148 93.1554 31.052 93.4914 30.86C93.8354 30.66 94.1074 30.376 94.3074 30.008C94.5074 29.632 94.6074 29.196 94.6074 28.7ZM97.1488 28.688C97.1488 28.016 97.2848 27.428 97.5568 26.924C97.8288 26.412 98.2008 26.016 98.6728 25.736C99.1528 25.456 99.6848 25.316 100.269 25.316C100.845 25.316 101.345 25.44 101.769 25.688C102.193 25.936 102.509 26.248 102.717 26.624V25.424H103.821V32H102.717V30.776C102.501 31.16 102.177 31.48 101.745 31.736C101.321 31.984 100.825 32.108 100.257 32.108C99.6728 32.108 99.1448 31.964 98.6728 31.676C98.2008 31.388 97.8288 30.984 97.5568 30.464C97.2848 29.944 97.1488 29.352 97.1488 28.688ZM102.717 28.7C102.717 28.204 102.617 27.772 102.417 27.404C102.217 27.036 101.945 26.756 101.601 26.564C101.265 26.364 100.893 26.264 100.485 26.264C100.077 26.264 99.7048 26.36 99.3688 26.552C99.0328 26.744 98.7648 27.024 98.5648 27.392C98.3648 27.76 98.2648 28.192 98.2648 28.688C98.2648 29.192 98.3648 29.632 98.5648 30.008C98.7648 30.376 99.0328 30.66 99.3688 30.86C99.7048 31.052 100.077 31.148 100.485 31.148C100.893 31.148 101.265 31.052 101.601 30.86C101.945 30.66 102.217 30.376 102.417 30.008C102.617 29.632 102.717 29.196 102.717 28.7Z" fill="#FAFCFF"/>
<g clip-path="url(#clip0_734_3174)">
<g clip-path="url(#clip1_734_3174)">
<g clip-path="url(#clip2_734_3174)">
<path d="M17.088 44.66L13.956 53H12.372L9.228 44.66H10.692L13.164 51.596L15.648 44.66H17.088ZM18.928 45.512C18.68 45.512 18.472 45.428 18.304 45.26C18.136 45.092 18.052 44.884 18.052 44.636C18.052 44.388 18.136 44.18 18.304 44.012C18.472 43.844 18.68 43.76 18.928 43.76C19.168 43.76 19.372 43.844 19.54 44.012C19.708 44.18 19.792 44.388 19.792 44.636C19.792 44.884 19.708 45.092 19.54 45.26C19.372 45.428 19.168 45.512 18.928 45.512ZM19.6 46.388V53H18.232V46.388H19.6ZM27.4561 49.532C27.4561 49.78 27.4401 50.004 27.4081 50.204H22.3561C22.3961 50.732 22.5921 51.156 22.9441 51.476C23.2961 51.796 23.7281 51.956 24.2401 51.956C24.9761 51.956 25.4961 51.648 25.8001 51.032H27.2761C27.0761 51.64 26.7121 52.14 26.1841 52.532C25.6641 52.916 25.0161 53.108 24.2401 53.108C23.6081 53.108 23.0401 52.968 22.5361 52.688C22.0401 52.4 21.6481 52 21.3601 51.488C21.0801 50.968 20.9401 50.368 20.9401 49.688C20.9401 49.008 21.0761 48.412 21.3481 47.9C21.6281 47.38 22.0161 46.98 22.5121 46.7C23.0161 46.42 23.5921 46.28 24.2401 46.28C24.8641 46.28 25.4201 46.416 25.9081 46.688C26.3961 46.96 26.7761 47.344 27.0481 47.84C27.3201 48.328 27.4561 48.892 27.4561 49.532ZM26.0281 49.1C26.0201 48.596 25.8401 48.192 25.4881 47.888C25.1361 47.584 24.7001 47.432 24.1801 47.432C23.7081 47.432 23.3041 47.584 22.9681 47.888C22.6321 48.184 22.4321 48.588 22.3681 49.1H26.0281ZM37.6823 46.388L35.6303 53H34.1903L32.8583 48.116L31.5263 53H30.0863L28.0223 46.388H29.4143L30.7943 51.704L32.1983 46.388H33.6263L34.9703 51.68L36.3383 46.388H37.6823ZM43.1899 47.36C43.4219 47.056 43.7379 46.8 44.1379 46.592C44.5379 46.384 44.9899 46.28 45.4939 46.28C46.0699 46.28 46.5939 46.424 47.0659 46.712C47.5459 46.992 47.9219 47.388 48.1939 47.9C48.4659 48.412 48.6019 49 48.6019 49.664C48.6019 50.328 48.4659 50.924 48.1939 51.452C47.9219 51.972 47.5459 52.38 47.0659 52.676C46.5939 52.964 46.0699 53.108 45.4939 53.108C44.9899 53.108 44.5419 53.008 44.1499 52.808C43.7579 52.6 43.4379 52.344 43.1899 52.04V56.144H41.8219V46.388H43.1899V47.36ZM47.2099 49.664C47.2099 49.208 47.1139 48.816 46.9219 48.488C46.7379 48.152 46.4899 47.9 46.1779 47.732C45.8739 47.556 45.5459 47.468 45.1939 47.468C44.8499 47.468 44.5219 47.556 44.2099 47.732C43.9059 47.908 43.6579 48.164 43.4659 48.5C43.2819 48.836 43.1899 49.232 43.1899 49.688C43.1899 50.144 43.2819 50.544 43.4659 50.888C43.6579 51.224 43.9059 51.48 44.2099 51.656C44.5219 51.832 44.8499 51.92 45.1939 51.92C45.5459 51.92 45.8739 51.832 46.1779 51.656C46.4899 51.472 46.7379 51.208 46.9219 50.864C47.1139 50.52 47.2099 50.12 47.2099 49.664ZM52.8227 53.108C52.1987 53.108 51.6347 52.968 51.1307 52.688C50.6267 52.4 50.2307 52 49.9427 51.488C49.6547 50.968 49.5107 50.368 49.5107 49.688C49.5107 49.016 49.6587 48.42 49.9547 47.9C50.2507 47.38 50.6547 46.98 51.1667 46.7C51.6787 46.42 52.2507 46.28 52.8827 46.28C53.5147 46.28 54.0867 46.42 54.5987 46.7C55.1107 46.98 55.5147 47.38 55.8107 47.9C56.1067 48.42 56.2547 49.016 56.2547 49.688C56.2547 50.36 56.1027 50.956 55.7987 51.476C55.4947 51.996 55.0787 52.4 54.5507 52.688C54.0307 52.968 53.4547 53.108 52.8227 53.108ZM52.8227 51.92C53.1747 51.92 53.5027 51.836 53.8067 51.668C54.1187 51.5 54.3707 51.248 54.5627 50.912C54.7547 50.576 54.8507 50.168 54.8507 49.688C54.8507 49.208 54.7587 48.804 54.5747 48.476C54.3907 48.14 54.1467 47.888 53.8427 47.72C53.5387 47.552 53.2107 47.468 52.8587 47.468C52.5067 47.468 52.1787 47.552 51.8747 47.72C51.5787 47.888 51.3427 48.14 51.1667 48.476C50.9907 48.804 50.9027 49.208 50.9027 49.688C50.9027 50.4 51.0827 50.952 51.4427 51.344C51.8107 51.728 52.2707 51.92 52.8227 51.92ZM58.975 47.348C59.175 47.012 59.439 46.752 59.767 46.568C60.103 46.376 60.499 46.28 60.955 46.28V47.696H60.607C60.071 47.696 59.663 47.832 59.383 48.104C59.111 48.376 58.975 48.848 58.975 49.52V53H57.607V46.388H58.975V47.348ZM64.9845 47.504H63.7605V53H62.3805V47.504H61.6005V46.388H62.3805V45.92C62.3805 45.16 62.5805 44.608 62.9805 44.264C63.3885 43.912 64.0245 43.736 64.8885 43.736V44.876C64.4725 44.876 64.1805 44.956 64.0125 45.116C63.8445 45.268 63.7605 45.536 63.7605 45.92V46.388H64.9845V47.504ZM69.0649 53.108C68.4409 53.108 67.8769 52.968 67.3729 52.688C66.8689 52.4 66.4729 52 66.1849 51.488C65.8969 50.968 65.7529 50.368 65.7529 49.688C65.7529 49.016 65.9009 48.42 66.1969 47.9C66.4929 47.38 66.8969 46.98 67.4089 46.7C67.9209 46.42 68.4929 46.28 69.1249 46.28C69.7569 46.28 70.3289 46.42 70.8409 46.7C71.3529 46.98 71.7569 47.38 72.0529 47.9C72.3489 48.42 72.4969 49.016 72.4969 49.688C72.4969 50.36 72.3449 50.956 72.0409 51.476C71.7369 51.996 71.3209 52.4 70.7929 52.688C70.2729 52.968 69.6969 53.108 69.0649 53.108ZM69.0649 51.92C69.4169 51.92 69.7449 51.836 70.0489 51.668C70.3609 51.5 70.6129 51.248 70.8049 50.912C70.9969 50.576 71.0929 50.168 71.0929 49.688C71.0929 49.208 71.0009 48.804 70.8169 48.476C70.6329 48.14 70.3889 47.888 70.0849 47.72C69.7809 47.552 69.4529 47.468 69.1009 47.468C68.7489 47.468 68.4209 47.552 68.1169 47.72C67.8209 47.888 67.5849 48.14 67.4089 48.476C67.2329 48.804 67.1449 49.208 67.1449 49.688C67.1449 50.4 67.3249 50.952 67.6849 51.344C68.0529 51.728 68.5129 51.92 69.0649 51.92ZM75.2172 44.12V53H73.8492V44.12H75.2172ZM77.7093 45.512C77.4613 45.512 77.2533 45.428 77.0853 45.26C76.9173 45.092 76.8333 44.884 76.8333 44.636C76.8333 44.388 76.9173 44.18 77.0853 44.012C77.2533 43.844 77.4613 43.76 77.7093 43.76C77.9493 43.76 78.1533 43.844 78.3213 44.012C78.4893 44.18 78.5733 44.388 78.5733 44.636C78.5733 44.884 78.4893 45.092 78.3213 45.26C78.1533 45.428 77.9493 45.512 77.7093 45.512ZM78.3813 46.388V53H77.0133V46.388H78.3813ZM83.0453 53.108C82.4213 53.108 81.8573 52.968 81.3533 52.688C80.8493 52.4 80.4533 52 80.1653 51.488C79.8773 50.968 79.7333 50.368 79.7333 49.688C79.7333 49.016 79.8813 48.42 80.1773 47.9C80.4733 47.38 80.8773 46.98 81.3893 46.7C81.9013 46.42 82.4733 46.28 83.1053 46.28C83.7373 46.28 84.3093 46.42 84.8213 46.7C85.3333 46.98 85.7373 47.38 86.0333 47.9C86.3293 48.42 86.4773 49.016 86.4773 49.688C86.4773 50.36 86.3253 50.956 86.0213 51.476C85.7173 51.996 85.3013 52.4 84.7733 52.688C84.2533 52.968 83.6773 53.108 83.0453 53.108ZM83.0453 51.92C83.3973 51.92 83.7253 51.836 84.0293 51.668C84.3413 51.5 84.5933 51.248 84.7853 50.912C84.9773 50.576 85.0733 50.168 85.0733 49.688C85.0733 49.208 84.9813 48.804 84.7973 48.476C84.6133 48.14 84.3693 47.888 84.0653 47.72C83.7613 47.552 83.4333 47.468 83.0813 47.468C82.7293 47.468 82.4013 47.552 82.0973 47.72C81.8013 47.888 81.5653 48.14 81.3893 48.476C81.2133 48.804 81.1253 49.208 81.1253 49.688C81.1253 50.4 81.3053 50.952 81.6653 51.344C82.0333 51.728 82.4933 51.92 83.0453 51.92Z" fill="#FAFCFF"/>
</g>
<g clip-path="url(#clip3_734_3174)">
<path d="M92.25 52.75L99.75 45.25M99.75 45.25H92.25M99.75 45.25V52.75" stroke="#FAFCFF" stroke-linecap="round" stroke-linejoin="round"/>
</g>
</g>
</g>
<defs>
<clipPath id="clip0_734_3174">
<rect width="96" height="18" fill="white" transform="translate(9 40)"/>
</clipPath>
<clipPath id="clip1_734_3174">
<rect x="9" y="40" width="96" height="18" rx="9" fill="white"/>
</clipPath>
<clipPath id="clip2_734_3174">
<rect width="78" height="16" fill="white" transform="translate(9 41)"/>
</clipPath>
<clipPath id="clip3_734_3174">
<rect width="18" height="18" fill="white" transform="translate(87 40)"/>
</clipPath>
</defs>
</svg>
