<svg width="247" height="32" viewBox="0 0 247 32" fill="none" xmlns="http://www.w3.org/2000/svg">
<g clip-path="url(#clip0_364_5222)">
<path opacity="0.1" d="M10 25.5C4.75329 25.5 0.5 21.2467 0.5 16C0.5 10.7533 4.75329 6.5 10 6.5C15.2467 6.5 19.5 10.7533 19.5 16C19.5 21.2467 15.2467 25.5 10 25.5Z" fill="#476285" stroke="#476285"/>
<path d="M14.3749 16.1373L9.68877 8.5V14.0437L13.7915 15.8768L9.68877 14.0449V18.858L14.3749 16.1375L14.375 16.1375L14.375 16.1374L14.375 16.1374L14.3749 16.1373ZM9.68752 14.0437V8.5L5.00202 16.1373L5.00192 16.1374L5.00197 16.1374L5.00192 16.1375L5.00207 16.1375L9.68752 18.858V14.0449L5.58537 15.8768L9.68752 14.0437ZM9.68752 19.7299V23.4968L4.99878 17.0099L9.68752 19.7299ZM9.68877 19.7293V23.4968L14.375 17.0099L9.68877 19.7293Z" fill="#476285"/>
</g>
<path d="M24.816 20.832C26.1707 19.744 27.232 18.8533 28 18.16C28.768 17.456 29.4133 16.7253 29.936 15.968C30.4693 15.2 30.736 14.448 30.736 13.712C30.736 13.0187 30.5653 12.4747 30.224 12.08C29.8933 11.6747 29.3547 11.472 28.608 11.472C27.8827 11.472 27.3173 11.7013 26.912 12.16C26.5173 12.608 26.304 13.2107 26.272 13.968H24.864C24.9067 12.7733 25.2693 11.8507 25.952 11.2C26.6347 10.5493 27.5147 10.224 28.592 10.224C29.6907 10.224 30.56 10.528 31.2 11.136C31.8507 11.744 32.176 12.5813 32.176 13.648C32.176 14.5333 31.9093 15.3973 31.376 16.24C30.8533 17.072 30.256 17.808 29.584 18.448C28.912 19.0773 28.0533 19.8133 27.008 20.656H32.512V21.872H24.816V20.832ZM35.9391 19.984L34.1471 24.288H33.1711L34.3391 19.984H35.9391ZM44.487 11.568L40.039 22H38.567L43.079 11.712H36.903V10.464H44.487V11.568ZM47.9734 18.896C48.08 19.504 48.3254 19.9733 48.7094 20.304C49.104 20.6347 49.632 20.8 50.2934 20.8C51.1787 20.8 51.8294 20.4533 52.2454 19.76C52.672 19.0667 52.8747 17.8987 52.8534 16.256C52.6294 16.736 52.256 17.1147 51.7334 17.392C51.2107 17.6587 50.6294 17.792 49.9894 17.792C49.2747 17.792 48.6347 17.648 48.0694 17.36C47.5147 17.0613 47.0774 16.6293 46.7574 16.064C46.4374 15.4987 46.2774 14.816 46.2774 14.016C46.2774 12.8747 46.608 11.9573 47.2694 11.264C47.9307 10.56 48.8694 10.208 50.0854 10.208C51.5787 10.208 52.624 10.6933 53.2214 11.664C53.8294 12.6347 54.1334 14.08 54.1334 16C54.1334 17.344 54.0107 18.4533 53.7654 19.328C53.5307 20.2027 53.1254 20.8693 52.5494 21.328C51.984 21.7867 51.2054 22.016 50.2134 22.016C49.1254 22.016 48.2774 21.7227 47.6694 21.136C47.0614 20.5493 46.7147 19.8027 46.6294 18.896H47.9734ZM50.2294 16.56C50.944 16.56 51.5307 16.3413 51.9894 15.904C52.448 15.456 52.6774 14.8533 52.6774 14.096C52.6774 13.296 52.4534 12.6507 52.0054 12.16C51.5574 11.6693 50.928 11.424 50.1174 11.424C49.3707 11.424 48.7734 11.6587 48.3254 12.128C47.888 12.5973 47.6694 13.216 47.6694 13.984C47.6694 14.7627 47.888 15.3867 48.3254 15.856C48.7627 16.3253 49.3974 16.56 50.2294 16.56ZM58.2915 15.984C57.6942 15.7493 57.2355 15.408 56.9155 14.96C56.5955 14.512 56.4355 13.968 56.4355 13.328C56.4355 12.752 56.5795 12.2347 56.8675 11.776C57.1555 11.3067 57.5822 10.9387 58.1475 10.672C58.7235 10.3947 59.4168 10.256 60.2275 10.256C61.0382 10.256 61.7262 10.3947 62.2915 10.672C62.8675 10.9387 63.2995 11.3067 63.5875 11.776C63.8862 12.2347 64.0355 12.752 64.0355 13.328C64.0355 13.9467 63.8702 14.4907 63.5395 14.96C63.2088 15.4187 62.7555 15.76 62.1795 15.984C62.8408 16.1867 63.3635 16.544 63.7475 17.056C64.1422 17.5573 64.3395 18.1653 64.3395 18.88C64.3395 19.5733 64.1688 20.1813 63.8275 20.704C63.4862 21.216 63.0008 21.616 62.3715 21.904C61.7528 22.1813 61.0382 22.32 60.2275 22.32C59.4168 22.32 58.7022 22.1813 58.0835 21.904C57.4755 21.616 57.0008 21.216 56.6595 20.704C56.3182 20.1813 56.1475 19.5733 56.1475 18.88C56.1475 18.1653 56.3395 17.552 56.7235 17.04C57.1075 16.528 57.6302 16.176 58.2915 15.984ZM62.6275 13.504C62.6275 12.8533 62.4142 12.352 61.9875 12C61.5608 11.648 60.9742 11.472 60.2275 11.472C59.4915 11.472 58.9102 11.648 58.4835 12C58.0568 12.352 57.8435 12.8587 57.8435 13.52C57.8435 14.1173 58.0622 14.5973 58.4995 14.96C58.9475 15.3227 59.5235 15.504 60.2275 15.504C60.9422 15.504 61.5182 15.3227 61.9555 14.96C62.4035 14.5867 62.6275 14.1013 62.6275 13.504ZM60.2275 16.624C59.4382 16.624 58.7928 16.8107 58.2915 17.184C57.7902 17.5467 57.5395 18.096 57.5395 18.832C57.5395 19.5147 57.7795 20.064 58.2595 20.48C58.7502 20.896 59.4062 21.104 60.2275 21.104C61.0488 21.104 61.6995 20.896 62.1795 20.48C62.6595 20.064 62.8995 19.5147 62.8995 18.832C62.8995 18.1173 62.6542 17.5733 62.1635 17.2C61.6728 16.816 61.0275 16.624 60.2275 16.624Z" fill="#6E84AB"/>
<path d="M169.503 5.03V5.77H166.473V8.12H168.933V8.86H166.473V12H165.563V5.03H169.503ZM172.992 12.09C172.479 12.09 172.012 11.9733 171.592 11.74C171.179 11.5067 170.852 11.1767 170.612 10.75C170.379 10.3167 170.262 9.81667 170.262 9.25C170.262 8.69 170.382 8.19667 170.622 7.77C170.869 7.33667 171.202 7.00667 171.622 6.78C172.042 6.54667 172.512 6.43 173.032 6.43C173.552 6.43 174.022 6.54667 174.442 6.78C174.862 7.00667 175.192 7.33333 175.432 7.76C175.679 8.18667 175.802 8.68333 175.802 9.25C175.802 9.81667 175.675 10.3167 175.422 10.75C175.175 11.1767 174.839 11.5067 174.412 11.74C173.985 11.9733 173.512 12.09 172.992 12.09ZM172.992 11.29C173.319 11.29 173.625 11.2133 173.912 11.06C174.199 10.9067 174.429 10.6767 174.602 10.37C174.782 10.0633 174.872 9.69 174.872 9.25C174.872 8.81 174.785 8.43667 174.612 8.13C174.439 7.82333 174.212 7.59667 173.932 7.45C173.652 7.29667 173.349 7.22 173.022 7.22C172.689 7.22 172.382 7.29667 172.102 7.45C171.829 7.59667 171.609 7.82333 171.442 8.13C171.275 8.43667 171.192 8.81 171.192 9.25C171.192 9.69667 171.272 10.0733 171.432 10.38C171.599 10.6867 171.819 10.9167 172.092 11.07C172.365 11.2167 172.665 11.29 172.992 11.29ZM177.909 4.6V12H176.999V4.6H177.909ZM180.369 4.6V12H179.459V4.6H180.369ZM184.31 12.09C183.797 12.09 183.33 11.9733 182.91 11.74C182.497 11.5067 182.17 11.1767 181.93 10.75C181.697 10.3167 181.58 9.81667 181.58 9.25C181.58 8.69 181.7 8.19667 181.94 7.77C182.187 7.33667 182.52 7.00667 182.94 6.78C183.36 6.54667 183.83 6.43 184.35 6.43C184.87 6.43 185.34 6.54667 185.76 6.78C186.18 7.00667 186.51 7.33333 186.75 7.76C186.997 8.18667 187.12 8.68333 187.12 9.25C187.12 9.81667 186.994 10.3167 186.74 10.75C186.494 11.1767 186.157 11.5067 185.73 11.74C185.304 11.9733 184.83 12.09 184.31 12.09ZM184.31 11.29C184.637 11.29 184.944 11.2133 185.23 11.06C185.517 10.9067 185.747 10.6767 185.92 10.37C186.1 10.0633 186.19 9.69 186.19 9.25C186.19 8.81 186.104 8.43667 185.93 8.13C185.757 7.82333 185.53 7.59667 185.25 7.45C184.97 7.29667 184.667 7.22 184.34 7.22C184.007 7.22 183.7 7.29667 183.42 7.45C183.147 7.59667 182.927 7.82333 182.76 8.13C182.594 8.43667 182.51 8.81 182.51 9.25C182.51 9.69667 182.59 10.0733 182.75 10.38C182.917 10.6867 183.137 10.9167 183.41 11.07C183.684 11.2167 183.984 11.29 184.31 11.29ZM195.617 6.52L193.907 12H192.967L191.647 7.65L190.327 12H189.387L187.667 6.52H188.597L189.857 11.12L191.217 6.52H192.147L193.477 11.13L194.717 6.52H195.617ZM200.096 7.54C200.283 7.21333 200.556 6.94667 200.916 6.74C201.276 6.53333 201.686 6.43 202.146 6.43C202.639 6.43 203.083 6.54667 203.476 6.78C203.869 7.01333 204.179 7.34333 204.406 7.77C204.633 8.19 204.746 8.68 204.746 9.24C204.746 9.79333 204.633 10.2867 204.406 10.72C204.179 11.1533 203.866 11.49 203.466 11.73C203.073 11.97 202.633 12.09 202.146 12.09C201.673 12.09 201.256 11.9867 200.896 11.78C200.543 11.5733 200.276 11.31 200.096 10.99V12H199.186V4.6H200.096V7.54ZM203.816 9.24C203.816 8.82667 203.733 8.46667 203.566 8.16C203.399 7.85333 203.173 7.62 202.886 7.46C202.606 7.3 202.296 7.22 201.956 7.22C201.623 7.22 201.313 7.30333 201.026 7.47C200.746 7.63 200.519 7.86667 200.346 8.18C200.179 8.48667 200.096 8.84333 200.096 9.25C200.096 9.66333 200.179 10.0267 200.346 10.34C200.519 10.6467 200.746 10.8833 201.026 11.05C201.313 11.21 201.623 11.29 201.956 11.29C202.296 11.29 202.606 11.21 202.886 11.05C203.173 10.8833 203.399 10.6467 203.566 10.34C203.733 10.0267 203.816 9.66 203.816 9.24ZM210.664 6.52L207.364 14.58H206.424L207.504 11.94L205.294 6.52H206.304L208.024 10.96L209.724 6.52H210.664ZM220.835 6.42C221.261 6.42 221.641 6.51 221.975 6.69C222.308 6.86333 222.571 7.12667 222.765 7.48C222.958 7.83333 223.055 8.26333 223.055 8.77V12H222.155V8.9C222.155 8.35333 222.018 7.93667 221.745 7.65C221.478 7.35667 221.115 7.21 220.655 7.21C220.181 7.21 219.805 7.36333 219.525 7.67C219.245 7.97 219.105 8.40667 219.105 8.98V12H218.205V8.9C218.205 8.35333 218.068 7.93667 217.795 7.65C217.528 7.35667 217.165 7.21 216.705 7.21C216.231 7.21 215.855 7.36333 215.575 7.67C215.295 7.97 215.155 8.40667 215.155 8.98V12H214.245V6.52H215.155V7.31C215.335 7.02333 215.575 6.80333 215.875 6.65C216.181 6.49667 216.518 6.42 216.885 6.42C217.345 6.42 217.751 6.52333 218.105 6.73C218.458 6.93667 218.721 7.24 218.895 7.64C219.048 7.25333 219.301 6.95333 219.655 6.74C220.008 6.52667 220.401 6.42 220.835 6.42ZM225.017 5.63C224.844 5.63 224.697 5.57 224.577 5.45C224.457 5.33 224.397 5.18333 224.397 5.01C224.397 4.83667 224.457 4.69 224.577 4.57C224.697 4.45 224.844 4.39 225.017 4.39C225.184 4.39 225.324 4.45 225.437 4.57C225.557 4.69 225.617 4.83667 225.617 5.01C225.617 5.18333 225.557 5.33 225.437 5.45C225.324 5.57 225.184 5.63 225.017 5.63ZM225.457 6.52V12H224.547V6.52H225.457ZM230.068 12L227.918 9.58V12H227.008V4.6H227.918V8.95L230.028 6.52H231.298L228.718 9.25L231.308 12H230.068ZM231.815 9.24C231.815 8.68 231.928 8.19 232.155 7.77C232.381 7.34333 232.691 7.01333 233.085 6.78C233.485 6.54667 233.928 6.43 234.415 6.43C234.895 6.43 235.311 6.53333 235.665 6.74C236.018 6.94667 236.281 7.20667 236.455 7.52V6.52H237.375V12H236.455V10.98C236.275 11.3 236.005 11.5667 235.645 11.78C235.291 11.9867 234.878 12.09 234.405 12.09C233.918 12.09 233.478 11.97 233.085 11.73C232.691 11.49 232.381 11.1533 232.155 10.72C231.928 10.2867 231.815 9.79333 231.815 9.24ZM236.455 9.25C236.455 8.83667 236.371 8.47667 236.205 8.17C236.038 7.86333 235.811 7.63 235.525 7.47C235.245 7.30333 234.935 7.22 234.595 7.22C234.255 7.22 233.945 7.3 233.665 7.46C233.385 7.62 233.161 7.85333 232.995 8.16C232.828 8.46667 232.745 8.82667 232.745 9.24C232.745 9.66 232.828 10.0267 232.995 10.34C233.161 10.6467 233.385 10.8833 233.665 11.05C233.945 11.21 234.255 11.29 234.595 11.29C234.935 11.29 235.245 11.21 235.525 11.05C235.811 10.8833 236.038 10.6467 236.205 10.34C236.371 10.0267 236.455 9.66333 236.455 9.25ZM239.383 5.63C239.209 5.63 239.063 5.57 238.943 5.45C238.823 5.33 238.763 5.18333 238.763 5.01C238.763 4.83667 238.823 4.69 238.943 4.57C239.063 4.45 239.209 4.39 239.383 4.39C239.549 4.39 239.689 4.45 239.803 4.57C239.923 4.69 239.983 4.83667 239.983 5.01C239.983 5.18333 239.923 5.33 239.803 5.45C239.689 5.57 239.549 5.63 239.383 5.63ZM239.823 6.52V12H238.913V6.52H239.823ZM244.044 6.42C244.71 6.42 245.25 6.62333 245.664 7.03C246.077 7.43 246.284 8.01 246.284 8.77V12H245.384V8.9C245.384 8.35333 245.247 7.93667 244.974 7.65C244.7 7.35667 244.327 7.21 243.854 7.21C243.374 7.21 242.99 7.36 242.704 7.66C242.424 7.96 242.284 8.39667 242.284 8.97V12H241.374V6.52H242.284V7.3C242.464 7.02 242.707 6.80333 243.014 6.65C243.327 6.49667 243.67 6.42 244.044 6.42ZM172.42 25.24C172.42 24.68 172.534 24.19 172.76 23.77C172.987 23.3433 173.297 23.0133 173.69 22.78C174.09 22.5467 174.534 22.43 175.02 22.43C175.5 22.43 175.917 22.5333 176.27 22.74C176.624 22.9467 176.887 23.2067 177.06 23.52V22.52H177.98V28H177.06V26.98C176.88 27.3 176.61 27.5667 176.25 27.78C175.897 27.9867 175.484 28.09 175.01 28.09C174.524 28.09 174.084 27.97 173.69 27.73C173.297 27.49 172.987 27.1533 172.76 26.72C172.534 26.2867 172.42 25.7933 172.42 25.24ZM177.06 25.25C177.06 24.8367 176.977 24.4767 176.81 24.17C176.644 23.8633 176.417 23.63 176.13 23.47C175.85 23.3033 175.54 23.22 175.2 23.22C174.86 23.22 174.55 23.3 174.27 23.46C173.99 23.62 173.767 23.8533 173.6 24.16C173.434 24.4667 173.35 24.8267 173.35 25.24C173.35 25.66 173.434 26.0267 173.6 26.34C173.767 26.6467 173.99 26.8833 174.27 27.05C174.55 27.21 174.86 27.29 175.2 27.29C175.54 27.29 175.85 27.21 176.13 27.05C176.417 26.8833 176.644 26.6467 176.81 26.34C176.977 26.0267 177.06 25.6633 177.06 25.25ZM182.188 22.42C182.855 22.42 183.395 22.6233 183.808 23.03C184.221 23.43 184.428 24.01 184.428 24.77V28H183.528V24.9C183.528 24.3533 183.391 23.9367 183.118 23.65C182.845 23.3567 182.471 23.21 181.998 23.21C181.518 23.21 181.135 23.36 180.848 23.66C180.568 23.96 180.428 24.3967 180.428 24.97V28H179.518V22.52H180.428V23.3C180.608 23.02 180.851 22.8033 181.158 22.65C181.471 22.4967 181.815 22.42 182.188 22.42ZM185.575 25.24C185.575 24.68 185.688 24.19 185.915 23.77C186.141 23.3433 186.451 23.0133 186.845 22.78C187.245 22.5467 187.691 22.43 188.185 22.43C188.611 22.43 189.008 22.53 189.375 22.73C189.741 22.9233 190.021 23.18 190.215 23.5V20.6H191.135V28H190.215V26.97C190.035 27.2967 189.768 27.5667 189.415 27.78C189.061 27.9867 188.648 28.09 188.175 28.09C187.688 28.09 187.245 27.97 186.845 27.73C186.451 27.49 186.141 27.1533 185.915 26.72C185.688 26.2867 185.575 25.7933 185.575 25.24ZM190.215 25.25C190.215 24.8367 190.131 24.4767 189.965 24.17C189.798 23.8633 189.571 23.63 189.285 23.47C189.005 23.3033 188.695 23.22 188.355 23.22C188.015 23.22 187.705 23.3 187.425 23.46C187.145 23.62 186.921 23.8533 186.755 24.16C186.588 24.4667 186.505 24.8267 186.505 25.24C186.505 25.66 186.588 26.0267 186.755 26.34C186.921 26.6467 187.145 26.8833 187.425 27.05C187.705 27.21 188.015 27.29 188.355 27.29C188.695 27.29 189.005 27.21 189.285 27.05C189.571 26.8833 189.798 26.6467 189.965 26.34C190.131 26.0267 190.215 25.6633 190.215 25.25ZM195.078 27.27C195.925 26.59 196.588 26.0333 197.068 25.6C197.548 25.16 197.952 24.7033 198.278 24.23C198.612 23.75 198.778 23.28 198.778 22.82C198.778 22.3867 198.672 22.0467 198.458 21.8C198.252 21.5467 197.915 21.42 197.448 21.42C196.995 21.42 196.642 21.5633 196.388 21.85C196.142 22.13 196.008 22.5067 195.988 22.98H195.108C195.135 22.2333 195.362 21.6567 195.788 21.25C196.215 20.8433 196.765 20.64 197.438 20.64C198.125 20.64 198.668 20.83 199.068 21.21C199.475 21.59 199.678 22.1133 199.678 22.78C199.678 23.3333 199.512 23.8733 199.178 24.4C198.852 24.92 198.478 25.38 198.058 25.78C197.638 26.1733 197.102 26.6333 196.448 27.16H199.888V27.92H195.078V27.27ZM202.03 26.74L200.91 29.43H200.3L201.03 26.74H202.03ZM202.683 21.6V20.77H204.563V28H203.643V21.6H202.683ZM206.016 27.27C206.863 26.59 207.526 26.0333 208.006 25.6C208.486 25.16 208.889 24.7033 209.216 24.23C209.549 23.75 209.716 23.28 209.716 22.82C209.716 22.3867 209.609 22.0467 209.396 21.8C209.189 21.5467 208.853 21.42 208.386 21.42C207.933 21.42 207.579 21.5633 207.326 21.85C207.079 22.13 206.946 22.5067 206.926 22.98H206.046C206.073 22.2333 206.299 21.6567 206.726 21.25C207.153 20.8433 207.703 20.64 208.376 20.64C209.063 20.64 209.606 20.83 210.006 21.21C210.413 21.59 210.616 22.1133 210.616 22.78C210.616 23.3333 210.449 23.8733 210.116 24.4C209.789 24.92 209.416 25.38 208.996 25.78C208.576 26.1733 208.039 26.6333 207.386 27.16H210.826V27.92H206.016V27.27ZM213.048 26.06C213.114 26.44 213.268 26.7333 213.508 26.94C213.754 27.1467 214.084 27.25 214.498 27.25C215.051 27.25 215.458 27.0333 215.718 26.6C215.984 26.1667 216.111 25.4367 216.098 24.41C215.958 24.71 215.724 24.9467 215.398 25.12C215.071 25.2867 214.708 25.37 214.308 25.37C213.861 25.37 213.461 25.28 213.108 25.1C212.761 24.9133 212.488 24.6433 212.288 24.29C212.088 23.9367 211.988 23.51 211.988 23.01C211.988 22.2967 212.194 21.7233 212.608 21.29C213.021 20.85 213.608 20.63 214.368 20.63C215.301 20.63 215.954 20.9333 216.328 21.54C216.708 22.1467 216.898 23.05 216.898 24.25C216.898 25.09 216.821 25.7833 216.668 26.33C216.521 26.8767 216.268 27.2933 215.908 27.58C215.554 27.8667 215.068 28.01 214.448 28.01C213.768 28.01 213.238 27.8267 212.858 27.46C212.478 27.0933 212.261 26.6267 212.208 26.06H213.048ZM214.458 24.6C214.904 24.6 215.271 24.4633 215.558 24.19C215.844 23.91 215.988 23.5333 215.988 23.06C215.988 22.56 215.848 22.1567 215.568 21.85C215.288 21.5433 214.894 21.39 214.388 21.39C213.921 21.39 213.548 21.5367 213.268 21.83C212.994 22.1233 212.858 22.51 212.858 22.99C212.858 23.4767 212.994 23.8667 213.268 24.16C213.541 24.4533 213.938 24.6 214.458 24.6ZM225.853 22.52V28H224.943V27.19C224.769 27.47 224.526 27.69 224.213 27.85C223.906 28.0033 223.566 28.08 223.193 28.08C222.766 28.08 222.383 27.9933 222.043 27.82C221.703 27.64 221.433 27.3733 221.233 27.02C221.039 26.6667 220.943 26.2367 220.943 25.73V22.52H221.843V25.61C221.843 26.15 221.979 26.5667 222.253 26.86C222.526 27.1467 222.899 27.29 223.373 27.29C223.859 27.29 224.243 27.14 224.523 26.84C224.803 26.54 224.943 26.1033 224.943 25.53V22.52H225.853ZM229.329 28.09C228.909 28.09 228.532 28.02 228.199 27.88C227.866 27.7333 227.602 27.5333 227.409 27.28C227.216 27.02 227.109 26.7233 227.089 26.39H228.029C228.056 26.6633 228.182 26.8867 228.409 27.06C228.642 27.2333 228.946 27.32 229.319 27.32C229.666 27.32 229.939 27.2433 230.139 27.09C230.339 26.9367 230.439 26.7433 230.439 26.51C230.439 26.27 230.332 26.0933 230.119 25.98C229.906 25.86 229.576 25.7433 229.129 25.63C228.722 25.5233 228.389 25.4167 228.129 25.31C227.876 25.1967 227.656 25.0333 227.469 24.82C227.289 24.6 227.199 24.3133 227.199 23.96C227.199 23.68 227.282 23.4233 227.449 23.19C227.616 22.9567 227.852 22.7733 228.159 22.64C228.466 22.5 228.816 22.43 229.209 22.43C229.816 22.43 230.306 22.5833 230.679 22.89C231.052 23.1967 231.252 23.6167 231.279 24.15H230.369C230.349 23.8633 230.232 23.6333 230.019 23.46C229.812 23.2867 229.532 23.2 229.179 23.2C228.852 23.2 228.592 23.27 228.399 23.41C228.206 23.55 228.109 23.7333 228.109 23.96C228.109 24.14 228.166 24.29 228.279 24.41C228.399 24.5233 228.546 24.6167 228.719 24.69C228.899 24.7567 229.146 24.8333 229.459 24.92C229.852 25.0267 230.172 25.1333 230.419 25.24C230.666 25.34 230.876 25.4933 231.049 25.7C231.229 25.9067 231.322 26.1767 231.329 26.51C231.329 26.81 231.246 27.08 231.079 27.32C230.912 27.56 230.676 27.75 230.369 27.89C230.069 28.0233 229.722 28.09 229.329 28.09ZM237.614 25.05C237.614 25.2233 237.604 25.4067 237.584 25.6H233.204C233.237 26.14 233.42 26.5633 233.754 26.87C234.094 27.17 234.504 27.32 234.984 27.32C235.377 27.32 235.704 27.23 235.964 27.05C236.23 26.8633 236.417 26.6167 236.524 26.31H237.504C237.357 26.8367 237.064 27.2667 236.624 27.6C236.184 27.9267 235.637 28.09 234.984 28.09C234.464 28.09 233.997 27.9733 233.584 27.74C233.177 27.5067 232.857 27.1767 232.624 26.75C232.39 26.3167 232.274 25.8167 232.274 25.25C232.274 24.6833 232.387 24.1867 232.614 23.76C232.84 23.3333 233.157 23.0067 233.564 22.78C233.977 22.5467 234.45 22.43 234.984 22.43C235.504 22.43 235.964 22.5433 236.364 22.77C236.764 22.9967 237.07 23.31 237.284 23.71C237.504 24.1033 237.614 24.55 237.614 25.05ZM236.674 24.86C236.674 24.5133 236.597 24.2167 236.444 23.97C236.29 23.7167 236.08 23.5267 235.814 23.4C235.554 23.2667 235.264 23.2 234.944 23.2C234.484 23.2 234.09 23.3467 233.764 23.64C233.444 23.9333 233.26 24.34 233.214 24.86H236.674ZM239.725 23.41C239.885 23.0967 240.112 22.8533 240.405 22.68C240.705 22.5067 241.068 22.42 241.495 22.42V23.36H241.255C240.235 23.36 239.725 23.9133 239.725 25.02V28H238.815V22.52H239.725V23.41ZM244.485 28.09C244.065 28.09 243.689 28.02 243.355 27.88C243.022 27.7333 242.759 27.5333 242.565 27.28C242.372 27.02 242.265 26.7233 242.245 26.39H243.185C243.212 26.6633 243.339 26.8867 243.565 27.06C243.799 27.2333 244.102 27.32 244.475 27.32C244.822 27.32 245.095 27.2433 245.295 27.09C245.495 26.9367 245.595 26.7433 245.595 26.51C245.595 26.27 245.489 26.0933 245.275 25.98C245.062 25.86 244.732 25.7433 244.285 25.63C243.879 25.5233 243.545 25.4167 243.285 25.31C243.032 25.1967 242.812 25.0333 242.625 24.82C242.445 24.6 242.355 24.3133 242.355 23.96C242.355 23.68 242.439 23.4233 242.605 23.19C242.772 22.9567 243.009 22.7733 243.315 22.64C243.622 22.5 243.972 22.43 244.365 22.43C244.972 22.43 245.462 22.5833 245.835 22.89C246.209 23.1967 246.409 23.6167 246.435 24.15H245.525C245.505 23.8633 245.389 23.6333 245.175 23.46C244.969 23.2867 244.689 23.2 244.335 23.2C244.009 23.2 243.749 23.27 243.555 23.41C243.362 23.55 243.265 23.7333 243.265 23.96C243.265 24.14 243.322 24.29 243.435 24.41C243.555 24.5233 243.702 24.6167 243.875 24.69C244.055 24.7567 244.302 24.8333 244.615 24.92C245.009 25.0267 245.329 25.1333 245.575 25.24C245.822 25.34 246.032 25.4933 246.205 25.7C246.385 25.9067 246.479 26.1767 246.485 26.51C246.485 26.81 246.402 27.08 246.235 27.32C246.069 27.56 245.832 27.75 245.525 27.89C245.225 28.0233 244.879 28.09 244.485 28.09Z" fill="#9D9BB9"/>
<defs>
<clipPath id="clip0_364_5222">
<rect width="20" height="20" fill="white" transform="translate(0 6)"/>
</clipPath>
</defs>
</svg>
