<svg width="36" height="36" viewBox="0 0 36 36" fill="none" xmlns="http://www.w3.org/2000/svg">
<rect width="36" height="36" rx="8" fill="#CDE2FE"/>
<path d="M10 11C10 10.4477 10.4477 10 11 10H13C13.5523 10 14 10.4477 14 11V13C14 13.5523 13.5523 14 13 14H11C10.4477 14 10 13.5523 10 13V11Z" fill="#6E84AB"/>
<path d="M10 17C10 16.4477 10.4477 16 11 16H13C13.5523 16 14 16.4477 14 17V19C14 19.5523 13.5523 20 13 20H11C10.4477 20 10 19.5523 10 19V17Z" fill="#6E84AB"/>
<path d="M10 23C10 22.4477 10.4477 22 11 22H13C13.5523 22 14 22.4477 14 23V25C14 25.5523 13.5523 26 13 26H11C10.4477 26 10 25.5523 10 25V23Z" fill="#6E84AB"/>
<path d="M16 11C16 10.4477 16.4477 10 17 10H19C19.5523 10 20 10.4477 20 11V13C20 13.5523 19.5523 14 19 14H17C16.4477 14 16 13.5523 16 13V11Z" fill="#6E84AB"/>
<path d="M16 17C16 16.4477 16.4477 16 17 16H19C19.5523 16 20 16.4477 20 17V19C20 19.5523 19.5523 20 19 20H17C16.4477 20 16 19.5523 16 19V17Z" fill="#6E84AB"/>
<path d="M16 23C16 22.4477 16.4477 22 17 22H19C19.5523 22 20 22.4477 20 23V25C20 25.5523 19.5523 26 19 26H17C16.4477 26 16 25.5523 16 25V23Z" fill="#6E84AB"/>
<path d="M22 11C22 10.4477 22.4477 10 23 10H25C25.5523 10 26 10.4477 26 11V13C26 13.5523 25.5523 14 25 14H23C22.4477 14 22 13.5523 22 13V11Z" fill="#6E84AB"/>
<path d="M22 17C22 16.4477 22.4477 16 23 16H25C25.5523 16 26 16.4477 26 17V19C26 19.5523 25.5523 20 25 20H23C22.4477 20 22 19.5523 22 19V17Z" fill="#6E84AB"/>
<path d="M22 23C22 22.4477 22.4477 22 23 22H25C25.5523 22 26 22.4477 26 23V25C26 25.5523 25.5523 26 25 26H23C22.4477 26 22 25.5523 22 25V23Z" fill="#6E84AB"/>
</svg>
