<svg width="24" height="24" viewBox="0 0 24 24" fill="none" xmlns="http://www.w3.org/2000/svg">
<rect width="24" height="24" rx="12" fill="#D7D6DC" fill-opacity="0.2"/>
<path d="M11.9999 12.6667C12.3681 12.6667 12.6666 12.3683 12.6666 12.0001C12.6666 11.6319 12.3681 11.3334 11.9999 11.3334C11.6317 11.3334 11.3333 11.6319 11.3333 12.0001C11.3333 12.3683 11.6317 12.6667 11.9999 12.6667Z" fill="white"/>
<path d="M11.9999 8.00008C12.3681 8.00008 12.6666 7.7016 12.6666 7.33341C12.6666 6.96522 12.3681 6.66675 11.9999 6.66675C11.6317 6.66675 11.3333 6.96522 11.3333 7.33341C11.3333 7.7016 11.6317 8.00008 11.9999 8.00008Z" fill="white"/>
<path d="M11.9999 17.3334C12.3681 17.3334 12.6666 17.0349 12.6666 16.6667C12.6666 16.2986 12.3681 16.0001 11.9999 16.0001C11.6317 16.0001 11.3333 16.2986 11.3333 16.6667C11.3333 17.0349 11.6317 17.3334 11.9999 17.3334Z" fill="white"/>
<path d="M11.9999 12.6667C12.3681 12.6667 12.6666 12.3683 12.6666 12.0001C12.6666 11.6319 12.3681 11.3334 11.9999 11.3334C11.6317 11.3334 11.3333 11.6319 11.3333 12.0001C11.3333 12.3683 11.6317 12.6667 11.9999 12.6667Z" stroke="white" stroke-linecap="round" stroke-linejoin="round"/>
<path d="M11.9999 8.00008C12.3681 8.00008 12.6666 7.7016 12.6666 7.33341C12.6666 6.96522 12.3681 6.66675 11.9999 6.66675C11.6317 6.66675 11.3333 6.96522 11.3333 7.33341C11.3333 7.7016 11.6317 8.00008 11.9999 8.00008Z" stroke="white" stroke-linecap="round" stroke-linejoin="round"/>
<path d="M11.9999 17.3334C12.3681 17.3334 12.6666 17.0349 12.6666 16.6667C12.6666 16.2986 12.3681 16.0001 11.9999 16.0001C11.6317 16.0001 11.3333 16.2986 11.3333 16.6667C11.3333 17.0349 11.6317 17.3334 11.9999 17.3334Z" stroke="white" stroke-linecap="round" stroke-linejoin="round"/>
</svg>
